<svg xmlns="http://www.w3.org/2000/svg" viewBox="0 0 640 640"><!--!Font Awesome Free 7.1.0 by @fontawesome - https://fontawesome.com License - https://fontawesome.com/license/free Copyright 2025 Fonticons, Inc.--><path fill="#ffffff" d="M192 0C156.7 0 128 28.7 128 64L128 320C128 355.3 156.7 384 192 384L448 384C483.3 384 512 355.3 512 320L512 64C512 28.7 483.3 0 448 0L192 0zM192 64L448 64L448 320L192 320L192 64zM64 128C28.7 128 0 156.7 0 192L0 448C0 483.3 28.7 512 64 512L320 512C355.3 512 384 483.3 384 448L384 192C384 156.7 355.3 128 320 128L64 128zM64 192L320 192L320 448L64 448L64 192z"/></svg>

